<svg width="199" height="107" viewBox="0 0 199 107" fill="none" xmlns="http://www.w3.org/2000/svg">
<path opacity="0.6" d="M48.6655 5.5385C48.6655 3.49466 51.1366 2.47109 52.5818 3.9163L95.7089 47.0434C96.6048 47.9393 96.6048 49.3919 95.7089 50.2878L52.5818 93.4149C51.1366 94.8601 48.6655 93.8365 48.6655 91.7927V48.6656V5.5385Z" fill="white"/>
<path opacity="0.3" d="M142.724 5.5385C142.724 3.49466 140.253 2.47109 138.808 3.9163L95.681 47.0434C94.7851 47.9393 94.7851 49.3919 95.681 50.2878L138.808 93.4149C140.253 94.8601 142.724 93.8365 142.724 91.7927V48.6656V5.5385Z" fill="white"/>
<path opacity="0.7" d="M48.6655 5.5385C48.6655 3.49466 46.1944 2.47109 44.7492 3.9163L1.62214 47.0434C0.726227 47.9393 0.726219 49.3919 1.62213 50.2878L44.7492 93.4149C46.1944 94.8601 48.6655 93.8365 48.6655 91.7927V48.6656V5.5385Z" fill="white"/>
<path d="M46.2322 4.05547C47.5761 2.7116 49.7549 2.7116 51.0988 4.05546L94.8978 47.8545C95.3458 48.3024 95.3458 49.0287 94.8978 49.4767L51.0988 93.2757C49.7549 94.6196 47.5761 94.6196 46.2322 93.2757L4.05541 51.0989C2.71154 49.755 2.71155 47.5762 4.05541 46.2323L46.2322 4.05547Z" stroke="white" stroke-width="2.29412"/>
<path d="M140.123 4.05547C141.466 2.7116 143.645 2.7116 144.989 4.05546L187.166 46.2323C188.51 47.5762 188.51 49.755 187.166 51.0989L144.989 93.2757C143.645 94.6196 141.466 94.6196 140.123 93.2757L96.3236 49.4767C95.8756 49.0287 95.8757 48.3024 96.3236 47.8545L140.123 4.05547Z" stroke="white" stroke-width="2.29412"/>
<path opacity="0.5" d="M0.7 97.0294V89.8294H2.885C2.96167 89.8294 3.09167 89.8311 3.275 89.8344C3.46167 89.8378 3.64 89.8511 3.81 89.8744C4.35667 89.9511 4.81333 90.1544 5.18 90.4844C5.54667 90.8144 5.82167 91.2344 6.005 91.7444C6.18833 92.2544 6.28 92.8161 6.28 93.4294C6.28 94.0428 6.18833 94.6044 6.005 95.1144C5.82167 95.6244 5.54667 96.0444 5.18 96.3744C4.81333 96.7044 4.35667 96.9078 3.81 96.9844C3.64333 97.0044 3.465 97.0178 3.275 97.0244C3.085 97.0278 2.955 97.0294 2.885 97.0294H0.7ZM1.46 96.3244H2.885C3.02167 96.3244 3.16833 96.3211 3.325 96.3144C3.485 96.3044 3.62167 96.2878 3.735 96.2644C4.155 96.1911 4.49333 96.0211 4.75 95.7544C5.01 95.4878 5.2 95.1544 5.32 94.7544C5.44 94.3511 5.5 93.9094 5.5 93.4294C5.5 92.9461 5.44 92.5028 5.32 92.0994C5.2 91.6961 5.01 91.3628 4.75 91.0994C4.49 90.8361 4.15167 90.6678 3.735 90.5944C3.62167 90.5711 3.48333 90.5561 3.32 90.5494C3.16 90.5394 3.015 90.5344 2.885 90.5344H1.46V96.3244ZM7.51875 90.6044V89.7794H8.25375V90.6044H7.51875ZM7.51875 97.0294V91.6294H8.25375V97.0294H7.51875ZM11.7677 97.1744C11.1344 97.1744 10.6127 97.0378 10.2027 96.7644C9.79607 96.4911 9.54607 96.1111 9.45273 95.6244L10.2027 95.4994C10.2827 95.8061 10.4644 96.0511 10.7477 96.2344C11.0344 96.4144 11.3877 96.5044 11.8077 96.5044C12.2177 96.5044 12.5411 96.4194 12.7777 96.2494C13.0144 96.0761 13.1327 95.8411 13.1327 95.5444C13.1327 95.3778 13.0944 95.2428 13.0177 95.1394C12.9444 95.0328 12.7927 94.9344 12.5627 94.8444C12.3327 94.7544 11.9894 94.6478 11.5327 94.5244C11.0427 94.3911 10.6594 94.2578 10.3827 94.1244C10.1061 93.9911 9.9094 93.8378 9.79273 93.6644C9.67607 93.4878 9.61773 93.2728 9.61773 93.0194C9.61773 92.7128 9.7044 92.4444 9.87773 92.2144C10.0511 91.9811 10.2911 91.8011 10.5977 91.6744C10.9044 91.5444 11.2611 91.4794 11.6677 91.4794C12.0744 91.4794 12.4377 91.5461 12.7577 91.6794C13.0811 91.8094 13.3411 91.9928 13.5377 92.2294C13.7344 92.4661 13.8511 92.7411 13.8877 93.0544L13.1377 93.1894C13.0877 92.8728 12.9294 92.6228 12.6627 92.4394C12.3994 92.2528 12.0644 92.1561 11.6577 92.1494C11.2744 92.1394 10.9627 92.2128 10.7227 92.3694C10.4827 92.5228 10.3627 92.7278 10.3627 92.9844C10.3627 93.1278 10.4061 93.2511 10.4927 93.3544C10.5794 93.4544 10.7361 93.5494 10.9627 93.6394C11.1927 93.7294 11.5194 93.8278 11.9427 93.9344C12.4394 94.0611 12.8294 94.1944 13.1127 94.3344C13.3961 94.4744 13.5977 94.6394 13.7177 94.8294C13.8377 95.0194 13.8977 95.2544 13.8977 95.5344C13.8977 96.0444 13.7077 96.4461 13.3277 96.7394C12.9511 97.0294 12.4311 97.1744 11.7677 97.1744ZM17.2466 97.1794C16.7033 97.1794 16.2433 97.0578 15.8666 96.8144C15.49 96.5711 15.2033 96.2361 15.0066 95.8094C14.8133 95.3794 14.7133 94.8861 14.7066 94.3294C14.7133 93.7628 14.8166 93.2661 15.0166 92.8394C15.2166 92.4094 15.505 92.0761 15.8816 91.8394C16.2583 91.5994 16.715 91.4794 17.2516 91.4794C17.7983 91.4794 18.2733 91.6128 18.6766 91.8794C19.0833 92.1461 19.3616 92.5111 19.5116 92.9744L18.7916 93.2044C18.665 92.8811 18.4633 92.6311 18.1866 92.4544C17.9133 92.2744 17.6 92.1844 17.2466 92.1844C16.85 92.1844 16.5216 92.2761 16.2616 92.4594C16.0016 92.6394 15.8083 92.8911 15.6816 93.2144C15.555 93.5378 15.49 93.9094 15.4866 94.3294C15.4933 94.9761 15.6433 95.4961 15.9366 95.8894C16.23 96.2794 16.6666 96.4744 17.2466 96.4744C17.6133 96.4744 17.925 96.3911 18.1816 96.2244C18.4416 96.0544 18.6383 95.8078 18.7716 95.4844L19.5116 95.7044C19.3116 96.1844 19.0183 96.5511 18.6316 96.8044C18.245 97.0544 17.7833 97.1794 17.2466 97.1794ZM22.6523 97.1794C22.1156 97.1794 21.6573 97.0578 21.2773 96.8144C20.8973 96.5711 20.6056 96.2344 20.4023 95.8044C20.1989 95.3744 20.0973 94.8811 20.0973 94.3244C20.0973 93.7578 20.2006 93.2611 20.4073 92.8344C20.6139 92.4078 20.9073 92.0761 21.2873 91.8394C21.6706 91.5994 22.1256 91.4794 22.6523 91.4794C23.1923 91.4794 23.6523 91.6011 24.0323 91.8444C24.4156 92.0844 24.7073 92.4194 24.9073 92.8494C25.1106 93.2761 25.2123 93.7678 25.2123 94.3244C25.2123 94.8911 25.1106 95.3894 24.9073 95.8194C24.7039 96.2461 24.4106 96.5794 24.0273 96.8194C23.6439 97.0594 23.1856 97.1794 22.6523 97.1794ZM22.6523 96.4744C23.2523 96.4744 23.6989 96.2761 23.9923 95.8794C24.2856 95.4794 24.4323 94.9611 24.4323 94.3244C24.4323 93.6711 24.2839 93.1511 23.9873 92.7644C23.6939 92.3778 23.2489 92.1844 22.6523 92.1844C22.2489 92.1844 21.9156 92.2761 21.6523 92.4594C21.3923 92.6394 21.1973 92.8911 21.0673 93.2144C20.9406 93.5344 20.8773 93.9044 20.8773 94.3244C20.8773 94.9744 21.0273 95.4961 21.3273 95.8894C21.6273 96.2794 22.0689 96.4744 22.6523 96.4744ZM27.5799 97.0294L25.6199 91.6294H26.3649L27.9599 96.0694L29.5449 91.6294H30.2999L28.3399 97.0294H27.5799ZM33.2877 97.1794C32.7611 97.1794 32.3044 97.0628 31.9177 96.8294C31.5344 96.5961 31.2361 96.2678 31.0227 95.8444C30.8094 95.4211 30.7027 94.9244 30.7027 94.3544C30.7027 93.7644 30.8077 93.2544 31.0177 92.8244C31.2277 92.3944 31.5227 92.0628 31.9027 91.8294C32.2861 91.5961 32.7377 91.4794 33.2577 91.4794C33.7911 91.4794 34.2461 91.6028 34.6227 91.8494C34.9994 92.0928 35.2844 92.4428 35.4777 92.8994C35.6711 93.3561 35.7594 93.9011 35.7427 94.5344H34.9927V94.2744C34.9794 93.5744 34.8277 93.0461 34.5377 92.6894C34.2511 92.3328 33.8311 92.1544 33.2777 92.1544C32.6977 92.1544 32.2527 92.3428 31.9427 92.7194C31.6361 93.0961 31.4827 93.6328 31.4827 94.3294C31.4827 95.0094 31.6361 95.5378 31.9427 95.9144C32.2527 96.2878 32.6911 96.4744 33.2577 96.4744C33.6444 96.4744 33.9811 96.3861 34.2677 96.2094C34.5577 96.0294 34.7861 95.7711 34.9527 95.4344L35.6377 95.6994C35.4244 96.1694 35.1094 96.5344 34.6927 96.7944C34.2794 97.0511 33.8111 97.1794 33.2877 97.1794ZM31.2227 94.5344V93.9194H35.3477V94.5344H31.2227ZM36.8523 97.0294V91.6294H37.5123V92.9294L37.3823 92.7594C37.4423 92.5994 37.5207 92.4528 37.6173 92.3194C37.714 92.1828 37.819 92.0711 37.9323 91.9844C38.0723 91.8611 38.2357 91.7678 38.4223 91.7044C38.609 91.6378 38.7973 91.5994 38.9873 91.5894C39.1773 91.5761 39.3507 91.5894 39.5073 91.6294V92.3194C39.3107 92.2694 39.0957 92.2578 38.8623 92.2844C38.629 92.3111 38.414 92.4044 38.2173 92.5644C38.0373 92.7044 37.9023 92.8728 37.8123 93.0694C37.7223 93.2628 37.6623 93.4694 37.6323 93.6894C37.6023 93.9061 37.5873 94.1211 37.5873 94.3344V97.0294H36.8523Z" fill="white"/>
<path opacity="0.5" d="M68.3763 14.4411V7.2411H70.5613C70.6379 7.2411 70.7679 7.24277 70.9513 7.2461C71.1379 7.24943 71.3163 7.26277 71.4863 7.2861C72.0329 7.36277 72.4896 7.5661 72.8563 7.8961C73.2229 8.2261 73.4979 8.6461 73.6813 9.1561C73.8646 9.6661 73.9563 10.2278 73.9563 10.8411C73.9563 11.4544 73.8646 12.0161 73.6813 12.5261C73.4979 13.0361 73.2229 13.4561 72.8563 13.7861C72.4896 14.1161 72.0329 14.3194 71.4863 14.3961C71.3196 14.4161 71.1413 14.4294 70.9513 14.4361C70.7613 14.4394 70.6313 14.4411 70.5613 14.4411H68.3763ZM69.1363 13.7361H70.5613C70.6979 13.7361 70.8446 13.7328 71.0013 13.7261C71.1613 13.7161 71.2979 13.6994 71.4113 13.6761C71.8313 13.6028 72.1696 13.4328 72.4263 13.1661C72.6863 12.8994 72.8763 12.5661 72.9963 12.1661C73.1163 11.7628 73.1763 11.3211 73.1763 10.8411C73.1763 10.3578 73.1163 9.91443 72.9963 9.5111C72.8763 9.10777 72.6863 8.77443 72.4263 8.5111C72.1663 8.24777 71.8279 8.07943 71.4113 8.0061C71.2979 7.98277 71.1596 7.96777 70.9963 7.9611C70.8363 7.9511 70.6913 7.9461 70.5613 7.9461H69.1363V13.7361ZM77.38 14.5911C76.8534 14.5911 76.3967 14.4744 76.01 14.2411C75.6267 14.0078 75.3284 13.6794 75.115 13.2561C74.9017 12.8328 74.795 12.3361 74.795 11.7661C74.795 11.1761 74.9 10.6661 75.11 10.2361C75.32 9.8061 75.615 9.47443 75.995 9.2411C76.3784 9.00777 76.83 8.8911 77.35 8.8911C77.8834 8.8911 78.3384 9.01443 78.715 9.2611C79.0917 9.50443 79.3767 9.85443 79.57 10.3111C79.7634 10.7678 79.8517 11.3128 79.835 11.9461H79.085V11.6861C79.0717 10.9861 78.92 10.4578 78.63 10.1011C78.3434 9.74443 77.9234 9.5661 77.37 9.5661C76.79 9.5661 76.345 9.75443 76.035 10.1311C75.7284 10.5078 75.575 11.0444 75.575 11.7411C75.575 12.4211 75.7284 12.9494 76.035 13.3261C76.345 13.6994 76.7834 13.8861 77.35 13.8861C77.7367 13.8861 78.0734 13.7978 78.36 13.6211C78.65 13.4411 78.8784 13.1828 79.045 12.8461L79.73 13.1111C79.5167 13.5811 79.2017 13.9461 78.785 14.2061C78.3717 14.4628 77.9034 14.5911 77.38 14.5911ZM75.315 11.9461V11.3311H79.44V11.9461H75.315ZM81.4796 14.4411V8.6411C81.4796 8.5011 81.4863 8.36277 81.4996 8.2261C81.5163 8.08943 81.548 7.95943 81.5946 7.8361C81.6413 7.70943 81.7146 7.59277 81.8146 7.4861C81.9246 7.3661 82.0446 7.27943 82.1746 7.2261C82.3046 7.16943 82.4396 7.13277 82.5796 7.1161C82.723 7.09943 82.863 7.0911 82.9996 7.0911H83.6896V7.7111H83.0496C82.7696 7.7111 82.5596 7.77943 82.4196 7.9161C82.283 8.05277 82.2146 8.26777 82.2146 8.5611V14.4411H81.4796ZM80.5446 9.6711V9.0411H83.6896V9.6711H80.5446ZM84.7396 8.0161V7.1911H85.4746V8.0161H84.7396ZM84.7396 14.4411V9.0411H85.4746V14.4411H84.7396ZM90.87 14.4411V11.6861C90.87 11.3861 90.8417 11.1111 90.785 10.8611C90.7284 10.6078 90.6367 10.3878 90.51 10.2011C90.3867 10.0111 90.225 9.86443 90.025 9.7611C89.8284 9.65777 89.5884 9.6061 89.305 9.6061C89.045 9.6061 88.815 9.6511 88.615 9.7411C88.4184 9.8311 88.2517 9.9611 88.115 10.1311C87.9817 10.2978 87.88 10.5011 87.81 10.7411C87.74 10.9811 87.705 11.2544 87.705 11.5611L87.185 11.4461C87.185 10.8928 87.2817 10.4278 87.475 10.0511C87.6684 9.67443 87.935 9.38943 88.275 9.1961C88.615 9.00277 89.005 8.9061 89.445 8.9061C89.7684 8.9061 90.05 8.9561 90.29 9.0561C90.5334 9.1561 90.7384 9.2911 90.905 9.4611C91.075 9.6311 91.2117 9.8261 91.315 10.0461C91.4184 10.2628 91.4934 10.4944 91.54 10.7411C91.5867 10.9844 91.61 11.2278 91.61 11.4711V14.4411H90.87ZM86.965 14.4411V9.0411H87.63V10.3711H87.705V14.4411H86.965ZM95.1632 14.5911C94.6366 14.5911 94.1799 14.4744 93.7932 14.2411C93.4099 14.0078 93.1116 13.6794 92.8982 13.2561C92.6849 12.8328 92.5782 12.3361 92.5782 11.7661C92.5782 11.1761 92.6832 10.6661 92.8932 10.2361C93.1032 9.8061 93.3982 9.47443 93.7782 9.2411C94.1616 9.00777 94.6132 8.8911 95.1332 8.8911C95.6666 8.8911 96.1216 9.01443 96.4982 9.2611C96.8749 9.50443 97.1599 9.85443 97.3532 10.3111C97.5466 10.7678 97.6349 11.3128 97.6182 11.9461H96.8682V11.6861C96.8549 10.9861 96.7032 10.4578 96.4132 10.1011C96.1266 9.74443 95.7066 9.5661 95.1532 9.5661C94.5732 9.5661 94.1282 9.75443 93.8182 10.1311C93.5116 10.5078 93.3582 11.0444 93.3582 11.7411C93.3582 12.4211 93.5116 12.9494 93.8182 13.3261C94.1282 13.6994 94.5666 13.8861 95.1332 13.8861C95.5199 13.8861 95.8566 13.7978 96.1432 13.6211C96.4332 13.4411 96.6616 13.1828 96.8282 12.8461L97.5132 13.1111C97.2999 13.5811 96.9849 13.9461 96.5682 14.2061C96.1549 14.4628 95.6866 14.5911 95.1632 14.5911ZM93.0982 11.9461V11.3311H97.2232V11.9461H93.0982Z" fill="white"/>
<path opacity="0.5" d="M94.7588 97.0294V89.8294H96.9438C97.0205 89.8294 97.1505 89.8311 97.3338 89.8344C97.5205 89.8378 97.6988 89.8511 97.8688 89.8744C98.4155 89.9511 98.8722 90.1544 99.2388 90.4844C99.6055 90.8144 99.8805 91.2344 100.064 91.7444C100.247 92.2544 100.339 92.8161 100.339 93.4294C100.339 94.0428 100.247 94.6044 100.064 95.1144C99.8805 95.6244 99.6055 96.0444 99.2388 96.3744C98.8722 96.7044 98.4155 96.9078 97.8688 96.9844C97.7022 97.0044 97.5238 97.0178 97.3338 97.0244C97.1438 97.0278 97.0138 97.0294 96.9438 97.0294H94.7588ZM95.5188 96.3244H96.9438C97.0805 96.3244 97.2272 96.3211 97.3838 96.3144C97.5438 96.3044 97.6805 96.2878 97.7938 96.2644C98.2138 96.1911 98.5522 96.0211 98.8088 95.7544C99.0688 95.4878 99.2588 95.1544 99.3788 94.7544C99.4988 94.3511 99.5588 93.9094 99.5588 93.4294C99.5588 92.9461 99.4988 92.5028 99.3788 92.0994C99.2588 91.6961 99.0688 91.3628 98.8088 91.0994C98.5488 90.8361 98.2105 90.6678 97.7938 90.5944C97.6805 90.5711 97.5422 90.5561 97.3788 90.5494C97.2188 90.5394 97.0738 90.5344 96.9438 90.5344H95.5188V96.3244ZM103.763 97.1794C103.236 97.1794 102.779 97.0628 102.393 96.8294C102.009 96.5961 101.711 96.2678 101.498 95.8444C101.284 95.4211 101.178 94.9244 101.178 94.3544C101.178 93.7644 101.283 93.2544 101.493 92.8244C101.703 92.3944 101.998 92.0628 102.378 91.8294C102.761 91.5961 103.213 91.4794 103.733 91.4794C104.266 91.4794 104.721 91.6028 105.098 91.8494C105.474 92.0928 105.759 92.4428 105.953 92.8994C106.146 93.3561 106.234 93.9011 106.218 94.5344H105.468V94.2744C105.454 93.5744 105.303 93.0461 105.013 92.6894C104.726 92.3328 104.306 92.1544 103.753 92.1544C103.173 92.1544 102.728 92.3428 102.418 92.7194C102.111 93.0961 101.958 93.6328 101.958 94.3294C101.958 95.0094 102.111 95.5378 102.418 95.9144C102.728 96.2878 103.166 96.4744 103.733 96.4744C104.119 96.4744 104.456 96.3861 104.743 96.2094C105.033 96.0294 105.261 95.7711 105.428 95.4344L106.113 95.6994C105.899 96.1694 105.584 96.5344 105.168 96.7944C104.754 97.0511 104.286 97.1794 103.763 97.1794ZM101.698 94.5344V93.9194H105.823V94.5344H101.698ZM108.592 97.0294L106.632 91.6294H107.377L108.972 96.0694L110.557 91.6294H111.312L109.352 97.0294H108.592ZM114.3 97.1794C113.773 97.1794 113.316 97.0628 112.93 96.8294C112.546 96.5961 112.248 96.2678 112.035 95.8444C111.821 95.4211 111.715 94.9244 111.715 94.3544C111.715 93.7644 111.82 93.2544 112.03 92.8244C112.24 92.3944 112.535 92.0628 112.915 91.8294C113.298 91.5961 113.75 91.4794 114.27 91.4794C114.803 91.4794 115.258 91.6028 115.635 91.8494C116.011 92.0928 116.296 92.4428 116.49 92.8994C116.683 93.3561 116.771 93.9011 116.755 94.5344H116.005V94.2744C115.991 93.5744 115.84 93.0461 115.55 92.6894C115.263 92.3328 114.843 92.1544 114.29 92.1544C113.71 92.1544 113.265 92.3428 112.955 92.7194C112.648 93.0961 112.495 93.6328 112.495 94.3294C112.495 95.0094 112.648 95.5378 112.955 95.9144C113.265 96.2878 113.703 96.4744 114.27 96.4744C114.656 96.4744 114.993 96.3861 115.28 96.2094C115.57 96.0294 115.798 95.7711 115.965 95.4344L116.65 95.6994C116.436 96.1694 116.121 96.5344 115.705 96.7944C115.291 97.0511 114.823 97.1794 114.3 97.1794ZM112.235 94.5344V93.9194H116.36V94.5344H112.235ZM117.964 97.0294V89.6794H118.699V97.0294H117.964ZM122.453 97.1794C121.917 97.1794 121.458 97.0578 121.078 96.8144C120.698 96.5711 120.407 96.2344 120.203 95.8044C120 95.3744 119.898 94.8811 119.898 94.3244C119.898 93.7578 120.002 93.2611 120.208 92.8344C120.415 92.4078 120.708 92.0761 121.088 91.8394C121.472 91.5994 121.927 91.4794 122.453 91.4794C122.993 91.4794 123.453 91.6011 123.833 91.8444C124.217 92.0844 124.508 92.4194 124.708 92.8494C124.912 93.2761 125.013 93.7678 125.013 94.3244C125.013 94.8911 124.912 95.3894 124.708 95.8194C124.505 96.2461 124.212 96.5794 123.828 96.8194C123.445 97.0594 122.987 97.1794 122.453 97.1794ZM122.453 96.4744C123.053 96.4744 123.5 96.2761 123.793 95.8794C124.087 95.4794 124.233 94.9611 124.233 94.3244C124.233 93.6711 124.085 93.1511 123.788 92.7644C123.495 92.3778 123.05 92.1844 122.453 92.1844C122.05 92.1844 121.717 92.2761 121.453 92.4594C121.193 92.6394 120.998 92.8911 120.868 93.2144C120.742 93.5344 120.678 93.9044 120.678 94.3244C120.678 94.9744 120.828 95.4961 121.128 95.8894C121.428 96.2794 121.87 96.4744 122.453 96.4744ZM128.541 97.1794C128.045 97.1794 127.625 97.0544 127.281 96.8044C126.938 96.5511 126.678 96.2094 126.501 95.7794C126.325 95.3461 126.236 94.8611 126.236 94.3244C126.236 93.7778 126.325 93.2911 126.501 92.8644C126.681 92.4344 126.945 92.0961 127.291 91.8494C127.638 91.6028 128.065 91.4794 128.571 91.4794C129.065 91.4794 129.488 91.6044 129.841 91.8544C130.195 92.1044 130.465 92.4444 130.651 92.8744C130.841 93.3044 130.936 93.7878 130.936 94.3244C130.936 94.8644 130.841 95.3494 130.651 95.7794C130.461 96.2094 130.188 96.5511 129.831 96.8044C129.475 97.0544 129.045 97.1794 128.541 97.1794ZM126.111 99.4294V91.6294H126.771V95.6944H126.851V99.4294H126.111ZM128.466 96.4944C128.843 96.4944 129.156 96.3994 129.406 96.2094C129.656 96.0194 129.843 95.7611 129.966 95.4344C130.093 95.1044 130.156 94.7344 130.156 94.3244C130.156 93.9178 130.095 93.5511 129.971 93.2244C129.848 92.8978 129.66 92.6394 129.406 92.4494C129.156 92.2594 128.838 92.1644 128.451 92.1644C128.075 92.1644 127.761 92.2561 127.511 92.4394C127.265 92.6228 127.08 92.8778 126.956 93.2044C126.833 93.5278 126.771 93.9011 126.771 94.3244C126.771 94.7411 126.833 95.1144 126.956 95.4444C127.08 95.7711 127.266 96.0278 127.516 96.2144C127.766 96.4011 128.083 96.4944 128.466 96.4944Z" fill="white"/>
<path opacity="0.5" d="M168.17 14.4411V7.2411H170.355C170.432 7.2411 170.562 7.24277 170.745 7.2461C170.932 7.24943 171.11 7.26277 171.28 7.2861C171.827 7.36277 172.284 7.5661 172.65 7.8961C173.017 8.2261 173.292 8.6461 173.475 9.1561C173.659 9.6661 173.75 10.2278 173.75 10.8411C173.75 11.4544 173.659 12.0161 173.475 12.5261C173.292 13.0361 173.017 13.4561 172.65 13.7861C172.284 14.1161 171.827 14.3194 171.28 14.3961C171.114 14.4161 170.935 14.4294 170.745 14.4361C170.555 14.4394 170.425 14.4411 170.355 14.4411H168.17ZM168.93 13.7361H170.355C170.492 13.7361 170.639 13.7328 170.795 13.7261C170.955 13.7161 171.092 13.6994 171.205 13.6761C171.625 13.6028 171.964 13.4328 172.22 13.1661C172.48 12.8994 172.67 12.5661 172.79 12.1661C172.91 11.7628 172.97 11.3211 172.97 10.8411C172.97 10.3578 172.91 9.91443 172.79 9.5111C172.67 9.10777 172.48 8.77443 172.22 8.5111C171.96 8.24777 171.622 8.07943 171.205 8.0061C171.092 7.98277 170.954 7.96777 170.79 7.9611C170.63 7.9511 170.485 7.9461 170.355 7.9461H168.93V13.7361ZM177.174 14.5911C176.648 14.5911 176.191 14.4744 175.804 14.2411C175.421 14.0078 175.123 13.6794 174.909 13.2561C174.696 12.8328 174.589 12.3361 174.589 11.7661C174.589 11.1761 174.694 10.6661 174.904 10.2361C175.114 9.8061 175.409 9.47443 175.789 9.2411C176.173 9.00777 176.624 8.8911 177.144 8.8911C177.678 8.8911 178.133 9.01443 178.509 9.2611C178.886 9.50443 179.171 9.85443 179.364 10.3111C179.558 10.7678 179.646 11.3128 179.629 11.9461H178.879V11.6861C178.866 10.9861 178.714 10.4578 178.424 10.1011C178.138 9.74443 177.718 9.5661 177.164 9.5661C176.584 9.5661 176.139 9.75443 175.829 10.1311C175.523 10.5078 175.369 11.0444 175.369 11.7411C175.369 12.4211 175.523 12.9494 175.829 13.3261C176.139 13.6994 176.578 13.8861 177.144 13.8861C177.531 13.8861 177.868 13.7978 178.154 13.6211C178.444 13.4411 178.673 13.1828 178.839 12.8461L179.524 13.1111C179.311 13.5811 178.996 13.9461 178.579 14.2061C178.166 14.4628 177.698 14.5911 177.174 14.5911ZM175.109 11.9461V11.3311H179.234V11.9461H175.109ZM180.839 14.4411V7.0911H181.574V14.4411H180.839ZM183.173 8.0161V7.1911H183.908V8.0161H183.173ZM183.173 14.4411V9.0411H183.908V14.4411H183.173ZM186.867 14.4411L184.907 9.0411H185.652L187.247 13.4811L188.832 9.0411H189.587L187.627 14.4411H186.867ZM192.575 14.5911C192.048 14.5911 191.591 14.4744 191.205 14.2411C190.821 14.0078 190.523 13.6794 190.31 13.2561C190.096 12.8328 189.99 12.3361 189.99 11.7661C189.99 11.1761 190.095 10.6661 190.305 10.2361C190.515 9.8061 190.81 9.47443 191.19 9.2411C191.573 9.00777 192.025 8.8911 192.545 8.8911C193.078 8.8911 193.533 9.01443 193.91 9.2611C194.286 9.50443 194.571 9.85443 194.765 10.3111C194.958 10.7678 195.046 11.3128 195.03 11.9461H194.28V11.6861C194.266 10.9861 194.115 10.4578 193.825 10.1011C193.538 9.74443 193.118 9.5661 192.565 9.5661C191.985 9.5661 191.54 9.75443 191.23 10.1311C190.923 10.5078 190.77 11.0444 190.77 11.7411C190.77 12.4211 190.923 12.9494 191.23 13.3261C191.54 13.6994 191.978 13.8861 192.545 13.8861C192.931 13.8861 193.268 13.7978 193.555 13.6211C193.845 13.4411 194.073 13.1828 194.24 12.8461L194.925 13.1111C194.711 13.5811 194.396 13.9461 193.98 14.2061C193.566 14.4628 193.098 14.5911 192.575 14.5911ZM190.51 11.9461V11.3311H194.635V11.9461H190.51ZM196.139 14.4411V9.0411H196.799V10.3411L196.669 10.1711C196.729 10.0111 196.808 9.86443 196.904 9.7311C197.001 9.59443 197.106 9.48277 197.219 9.3961C197.359 9.27277 197.523 9.17943 197.709 9.1161C197.896 9.04943 198.084 9.0111 198.274 9.0011C198.464 8.98777 198.638 9.0011 198.794 9.0411V9.7311C198.598 9.6811 198.383 9.66943 198.149 9.6961C197.916 9.72277 197.701 9.8161 197.504 9.9761C197.324 10.1161 197.189 10.2844 197.099 10.4811C197.009 10.6744 196.949 10.8811 196.919 11.1011C196.889 11.3178 196.874 11.5328 196.874 11.7461V14.4411H196.139Z" fill="white"/>
</svg>
